<svg width="800" height="800" viewBox="0 0 800 800" fill="none" xmlns="http://www.w3.org/2000/svg">
<path d="M383.701 162.145C383.531 162.316 380.125 162.741 376.124 162.997C372.122 163.337 368.12 163.763 367.184 163.933C366.247 164.189 364.119 164.529 362.501 164.699C360.884 164.955 355.69 165.977 351.007 166.913C346.325 167.935 341.557 168.956 340.45 169.127C339.258 169.382 334.15 170.915 328.956 172.617C237.516 201.905 173.747 279.553 162.934 374.654C161.827 384.275 161.657 416.117 162.678 424.46C164.296 437.572 165.743 445.66 168.979 458.857C171.022 467.286 176.471 484.143 179.196 490.444C183.027 499.213 192.648 518.199 196.479 524.5C200.566 531.14 212.145 547.572 214.614 550.212C215.21 550.808 217.423 553.447 219.552 556.001C238.112 578.138 265.783 599.678 293.198 613.385C303.329 618.409 325.976 627.519 329.297 627.944C329.552 627.944 330.233 628.285 330.829 628.625C331.34 629.051 331.851 629.136 331.851 628.881C331.851 628.625 333.469 628.966 335.342 629.647C339.854 631.265 361.309 635.777 368.035 636.458C370.845 636.799 375.613 637.31 378.678 637.735C384.382 638.416 419.63 638.246 424.227 637.48C425.675 637.224 429.08 636.799 431.89 636.458C437.339 635.777 437.169 635.862 447.215 633.819C481.271 627.008 512.858 612.96 541.976 591.59C549.979 585.63 551.511 584.438 559.94 576.86C568.88 568.772 578.075 558.981 587.185 547.913C588.887 545.87 593.655 539.229 597.657 533.439C600.041 529.863 606.767 518.88 610.513 512.154C621.155 492.998 632.224 460.219 635.374 438.253C635.629 435.954 636.055 433.4 636.225 432.464C638.779 419.437 638.524 382.061 635.799 364.437C621.922 275.126 558.918 201.054 473.098 173.299C463.902 170.319 453.005 167.509 446.789 166.487C445.172 166.232 443.214 165.806 442.532 165.636C440.319 165.04 436.743 164.444 430.783 163.848C427.633 163.593 424.738 163.082 424.313 162.826C423.376 162.316 384.212 161.72 383.701 162.145ZM414.862 187.687C419.545 187.943 424.313 188.368 425.419 188.624C426.441 188.794 428.995 189.134 430.953 189.39C450.536 191.774 478.036 200.628 497.873 210.93C506.047 215.187 525.458 227.532 529.971 231.279C530.993 232.215 533.291 234.003 535.079 235.45C579.011 270.954 607.703 325.784 612.386 383.593C612.897 389.638 612.897 411.945 612.386 416.798C612.216 418.671 611.875 422.332 611.62 424.886C610.428 437.402 605.915 456.899 600.807 471.287C595.954 485.165 589.228 498.958 580.033 514.198C571.774 527.735 555.938 546.466 542.231 558.811C536.697 563.664 535.335 564.515 535.335 562.642C535.335 562.131 534.228 558.555 532.866 554.809C530.482 548.424 516.008 506.705 506.813 480.227C504.599 473.927 501.534 465.072 500.002 460.645C498.469 456.218 496.511 450.513 495.66 448.129C494.553 444.894 493.701 443.702 492.765 444.043C492.084 444.213 480.42 446.937 466.797 450.002C453.26 453.067 439.808 456.132 436.998 456.814C429.421 458.601 416.735 461.581 415.203 461.922C407.285 463.625 390.257 467.541 389.831 467.882C389.32 468.137 399.537 508.408 403.368 521.094C404.475 524.84 409.413 543.145 409.754 545.103C409.924 545.87 410.86 549.36 411.797 552.766C412.734 556.172 414.351 562.046 415.288 565.792C416.309 569.538 418.268 576.605 419.545 581.543C425.675 604.19 427.292 610.661 426.952 611.001C424.653 613.3 385.233 613.896 374.421 611.768C373.654 611.597 370.93 611.257 368.376 610.916C355.86 609.469 330.148 602.232 317.462 596.783C306.139 591.845 292.772 584.523 282.47 577.712C276.084 573.455 270.38 569.538 269.699 568.942C269.018 568.346 267.485 567.069 266.293 566.133C253.693 555.831 245.604 547.658 232.067 531.396C229.087 527.905 218.104 511.558 215.38 506.62C206.61 490.955 196.564 467.03 194.35 456.388C194.18 455.707 193.499 452.812 192.818 450.002C191.37 444.468 189.072 431.697 188.391 425.652C187.284 415.01 187.114 411.604 187.114 400.196C187.114 393.385 187.284 385.722 187.539 383.168C187.795 380.614 188.22 376.953 188.391 375.079C191.711 340.598 207.973 300.497 230.45 271.209C254.714 239.537 286.727 215.528 324.103 200.969C335.852 196.371 357.904 190.752 368.972 189.475C371.271 189.22 374.08 188.794 375.272 188.539C376.464 188.368 381.658 187.943 386.766 187.687C391.959 187.347 396.216 187.091 396.302 187.006C396.557 186.836 406.093 187.176 414.862 187.687Z" fill="#DA291C"/>
<path d="M432.316 278.616C427.633 279.297 398.6 285.683 371.441 292.068C359.777 294.793 342.068 298.879 339.684 299.305C338.407 299.561 334.746 300.412 331.425 301.263C326.146 302.626 325.38 303.051 324.699 305.35C320.868 318.547 314.653 326.55 304.776 331.403C301.626 332.935 298.902 334.212 298.646 334.298C298.391 334.298 296.858 334.638 295.241 334.894C281.193 337.618 266.464 333.361 256.162 323.655C253.778 321.442 251.394 319.739 250.798 319.824C250.202 319.909 247.392 320.59 244.583 321.271C239.474 322.633 214.103 328.423 210.101 329.189C205.163 330.126 205.078 330.211 206.014 333.616C206.44 335.319 208.483 342.13 210.527 348.686C212.57 355.242 216.997 369.631 220.318 380.614C223.638 391.597 227.725 405.049 229.428 410.412C231.045 415.776 232.493 420.544 232.578 421.055C232.663 421.481 233.344 423.779 234.11 426.163C234.877 428.462 236.324 433.23 237.431 436.55C239.474 443.447 238.623 443.021 246.711 440.978C248.329 440.637 250.628 440.126 251.82 439.871C253.011 439.615 261.355 437.742 270.465 435.614C279.49 433.485 287.067 431.697 287.238 431.697C287.408 431.697 287.578 430.761 287.578 429.569C287.578 425.908 292.431 417.053 297.114 411.945C309.885 398.237 330.829 394.151 347.176 402.239C355.179 406.155 356.116 406.837 361.565 412.285C368.631 419.267 374.506 427.611 379.614 437.998C381.913 442.68 383.956 446.597 384.127 446.767C384.212 446.937 389.32 445.916 395.365 444.468C401.41 443.021 407.88 441.488 409.754 441.148C412.563 440.552 466.542 428.036 470.628 427.015C471.31 426.844 474.971 425.993 478.717 425.227C482.463 424.375 485.868 423.439 486.209 423.183C486.635 422.843 486.294 421.055 485.528 419.267C484.762 417.394 483.995 415.351 483.825 414.669C483.655 413.988 482.463 409.561 481.271 404.878C478.546 394.832 477.865 377.634 479.909 371.674C483.91 359.669 489.274 354.391 500.938 350.9C505.706 349.452 508.516 349.197 515.752 349.452C520.691 349.623 525.543 350.048 526.65 350.304C527.672 350.559 529.375 350.985 530.396 351.24C542.657 353.88 564.623 364.607 585.737 378.23L594.847 384.189L599.615 383.168C602.169 382.657 604.298 381.806 604.298 381.295C604.298 378.996 592.293 359.329 584.886 349.538C577.649 340.002 567.006 328.593 557.13 319.824C548.191 311.821 530.482 300.242 518.477 294.537C505.791 288.407 487.827 282.448 477.014 280.66C475.652 280.404 471.82 279.808 468.5 279.212C461.008 278.02 439.638 277.68 432.316 278.616ZM461.433 401.813C464.243 404.963 464.583 409.306 462.37 412.03C460.667 414.073 459.56 414.414 428.91 421.31C399.111 428.121 401.325 427.781 398.345 426.248C395.45 424.716 394.258 422.928 393.577 419.182C392.811 414.584 396.216 411.775 405.071 409.987C406.178 409.731 420.226 406.581 423.802 405.73C424.483 405.559 430.272 404.197 436.573 402.75C442.873 401.302 449.003 399.855 450.195 399.685C451.302 399.429 452.409 399.089 452.579 398.919C452.749 398.748 454.282 398.748 455.984 398.919C458.198 399.089 459.816 400.025 461.433 401.813Z" fill="#DA291C"/>
</svg>
