<svg width="800" height="800" viewBox="0 0 800 800" fill="none" xmlns="http://www.w3.org/2000/svg">
<path d="M379.729 103.979C379.517 104.191 375.282 104.72 370.305 105.038C365.328 105.462 360.351 105.991 359.187 106.203C358.022 106.52 355.375 106.944 353.363 107.156C351.351 107.473 344.892 108.744 339.068 109.909C333.244 111.179 327.314 112.45 325.938 112.662C324.455 112.98 318.102 114.886 311.643 117.003C197.919 153.429 118.609 249.999 105.161 368.275C103.785 380.241 103.573 419.843 104.844 430.22C106.856 446.527 108.656 456.586 112.679 472.999C115.221 483.482 121.998 504.447 125.386 512.283C130.151 523.19 142.116 546.803 146.881 554.638C151.964 562.898 166.365 583.334 169.435 586.616C170.177 587.358 172.93 590.64 175.577 593.817C198.66 621.348 233.074 648.137 267.17 665.185C279.771 671.433 307.937 682.763 312.067 683.292C312.384 683.292 313.231 683.716 313.973 684.139C314.608 684.669 315.243 684.775 315.243 684.457C315.243 684.139 317.255 684.563 319.585 685.41C325.197 687.422 351.88 693.034 360.246 693.881C363.74 694.305 369.67 694.94 373.482 695.469C380.576 696.316 424.414 696.105 430.132 695.152C431.932 694.834 436.167 694.305 439.662 693.881C446.438 693.034 446.227 693.14 458.721 690.598C501.077 682.127 540.361 664.656 576.575 638.078C586.528 630.666 588.434 629.183 598.917 619.759C610.035 609.7 621.471 597.523 632.801 583.758C634.919 581.216 640.849 572.957 645.825 565.757C648.79 561.309 657.155 547.65 661.814 539.285C675.05 515.46 688.816 474.693 692.734 447.374C693.051 444.515 693.581 441.338 693.793 440.173C696.969 423.973 696.652 377.488 693.263 355.569C676.003 244.492 597.646 152.37 490.911 117.85C479.475 114.144 465.922 110.65 458.192 109.379C456.18 109.062 453.745 108.532 452.898 108.321C450.144 107.579 445.697 106.838 438.285 106.097C434.367 105.779 430.767 105.144 430.237 104.826C429.073 104.191 380.364 103.45 379.729 103.979ZM418.484 135.746C424.308 136.063 430.237 136.593 431.614 136.91C432.885 137.122 436.061 137.546 438.497 137.863C462.851 140.828 497.053 151.84 521.725 164.653C531.89 169.947 556.032 185.301 561.644 189.96C562.915 191.125 565.774 193.349 567.998 195.149C622.636 239.304 658.32 307.496 664.144 379.394C664.779 386.912 664.779 414.654 664.144 420.69C663.932 423.02 663.509 427.573 663.191 430.749C661.709 446.315 656.097 470.563 649.743 488.458C643.708 505.718 635.342 522.872 623.907 541.826C613.635 558.662 593.94 581.957 576.892 597.311C570.01 603.347 568.315 604.406 568.315 602.076C568.315 601.441 566.939 596.994 565.245 592.334C562.28 584.393 544.279 532.508 532.843 499.577C530.09 491.741 526.278 480.729 524.372 475.222C522.466 469.716 520.03 462.622 518.972 459.657C517.595 455.633 516.536 454.151 515.371 454.574C514.524 454.786 500.018 458.174 483.076 461.986C466.239 465.798 449.509 469.61 446.015 470.457C436.591 472.681 420.813 476.387 418.907 476.811C409.06 478.928 387.882 483.799 387.353 484.223C386.718 484.54 399.424 534.625 404.189 550.403C405.566 555.062 411.707 577.828 412.131 580.263C412.342 581.216 413.507 585.558 414.672 589.793C415.837 594.029 417.849 601.335 419.013 605.994C420.284 610.653 422.719 619.442 424.308 625.583C431.932 653.749 433.944 661.797 433.52 662.22C430.661 665.079 381.635 665.821 368.187 663.173C367.234 662.962 363.846 662.538 360.669 662.115C345.104 660.315 313.125 651.314 297.348 644.537C283.265 638.396 266.641 629.289 253.828 620.818C245.887 615.524 238.792 610.653 237.945 609.912C237.098 609.171 235.192 607.582 233.709 606.418C218.038 593.605 207.979 583.44 191.142 563.215C187.436 558.874 173.777 538.543 170.388 532.402C159.482 512.918 146.987 483.164 144.234 469.928C144.022 469.081 143.175 465.481 142.328 461.986C140.528 455.104 137.669 439.22 136.822 431.702C135.445 418.466 135.234 414.231 135.234 400.042C135.234 391.571 135.445 382.041 135.763 378.864C136.081 375.688 136.61 371.134 136.822 368.805C140.952 325.92 161.176 276.047 189.131 239.622C219.309 200.231 259.123 170.371 305.607 152.264C320.22 146.546 347.645 139.557 361.41 137.969C364.269 137.651 367.764 137.122 369.246 136.804C370.728 136.593 377.188 136.063 383.541 135.746C390 135.322 395.294 135.004 395.4 134.898C395.718 134.687 407.577 135.11 418.484 135.746Z" fill="#DA291C"/>
<path d="M440.191 248.834C434.367 249.681 398.259 257.623 364.481 265.564C349.974 268.953 327.95 274.035 324.985 274.565C323.396 274.882 318.843 275.941 314.714 277C308.148 278.694 307.196 279.224 306.348 282.083C301.583 298.495 293.854 308.449 281.571 314.484C277.653 316.39 274.264 317.979 273.947 318.085C273.629 318.085 271.723 318.508 269.711 318.826C252.24 322.214 233.921 316.92 221.109 304.849C218.144 302.095 215.179 299.978 214.438 300.084C213.696 300.19 210.202 301.037 206.708 301.884C200.355 303.578 168.8 310.778 163.823 311.731C157.682 312.896 157.576 313.002 158.741 317.237C159.27 319.355 161.811 327.826 164.353 335.98C166.894 344.133 172.4 362.028 176.53 375.688C180.659 389.347 185.742 406.077 187.86 412.748C189.872 419.419 191.672 425.349 191.778 425.984C191.884 426.514 192.731 429.373 193.684 432.338C194.637 435.197 196.437 441.126 197.813 445.256C200.355 453.833 199.296 453.304 209.355 450.762C211.367 450.339 214.226 449.703 215.708 449.386C217.191 449.068 227.568 446.738 238.898 444.091C250.122 441.444 259.546 439.22 259.758 439.22C259.969 439.22 260.181 438.056 260.181 436.573C260.181 432.02 266.217 421.008 272.041 414.654C287.924 397.606 313.972 392.524 334.303 402.583C344.256 407.454 345.421 408.301 352.198 415.078C360.987 423.761 368.293 434.138 374.646 447.056C377.505 452.88 380.046 457.751 380.258 457.963C380.364 458.174 386.717 456.904 394.235 455.104C401.753 453.304 409.801 451.398 412.13 450.974C415.625 450.233 482.758 434.667 487.84 433.397C488.687 433.185 493.241 432.126 497.9 431.173C502.559 430.114 506.794 428.949 507.218 428.632C507.747 428.208 507.324 425.984 506.371 423.761C505.418 421.431 504.465 418.89 504.253 418.043C504.041 417.196 502.559 411.69 501.076 405.866C497.688 393.371 496.841 371.982 499.382 364.569C504.359 349.639 511.03 343.074 525.536 338.733C531.466 336.933 534.961 336.615 543.961 336.933C550.102 337.144 556.138 337.674 557.515 337.992C558.785 338.309 560.903 338.839 562.174 339.156C577.422 342.439 604.741 355.781 631.001 372.723L642.331 380.135L648.261 378.864C651.437 378.229 654.084 377.17 654.084 376.535C654.084 373.676 639.154 349.216 629.942 337.039C620.942 325.179 607.706 310.99 595.423 300.084C584.304 290.13 562.28 275.729 547.349 268.635C531.572 261.011 509.23 253.599 495.782 251.375C494.088 251.057 489.323 250.316 485.193 249.575C475.875 248.093 449.297 247.669 440.191 248.834ZM476.404 402.054C479.899 405.972 480.322 411.372 477.569 414.76C475.451 417.302 474.075 417.725 435.955 426.302C398.894 434.773 401.648 434.35 397.941 432.444C394.341 430.538 392.859 428.314 392.012 423.655C391.059 417.937 395.294 414.443 406.307 412.219C407.683 411.901 425.155 407.983 429.602 406.925C430.449 406.713 437.649 405.019 445.485 403.218C453.321 401.418 460.945 399.618 462.427 399.407C463.804 399.089 465.18 398.665 465.392 398.454C465.604 398.242 467.51 398.242 469.628 398.454C472.381 398.665 474.393 399.83 476.404 402.054Z" fill="#DA291C"/>
</svg>
